<svg width="13" height="13" viewBox="0 0 13 13" fill="none" xmlns="http://www.w3.org/2000/svg">
<g clip-path="url(#clip0_1_61)">
<path d="M7.58335 7.71985V11.9167H2.16669C2.16652 11.2553 2.31777 10.6026 2.60885 10.0086C2.89993 9.41466 3.32311 8.89523 3.84597 8.49012C4.36883 8.08501 4.97749 7.80497 5.62531 7.67145C6.27313 7.53794 6.94292 7.55449 7.58335 7.71985ZM6.50002 7.04169C4.7044 7.04169 3.25002 5.58731 3.25002 3.79169C3.25002 1.99606 4.7044 0.541687 6.50002 0.541687C8.29564 0.541687 9.75002 1.99606 9.75002 3.79169C9.75002 5.58731 8.29564 7.04169 6.50002 7.04169ZM9.75002 9.20835V7.58335H10.8334V9.20835H12.4584V10.2917H10.8334V11.9167H9.75002V10.2917H8.12502V9.20835H9.75002Z" fill="#0778BF"/>
</g>
<defs>
<clipPath id="clip0_1_61">
<rect width="13" height="13" fill="white"/>
</clipPath>
</defs>
</svg>
