<svg width="102" height="116" viewBox="0 0 102 116" fill="none" xmlns="http://www.w3.org/2000/svg">
<path d="M99.329 14.6051L51.3766 0.219201C50.9263 0.0851362 50.451 0.0851362 50.0006 0.219201L2.04827 14.6051C1.03115 14.9126 0.335938 15.843 0.335938 16.9028V69.6518C0.335938 90.8566 32.6652 109.712 49.9776 115.101C50.208 115.172 50.4473 115.206 50.6873 115.206C50.9273 115.206 51.1665 115.172 51.3969 115.101C68.7081 109.716 101.039 90.8546 101.039 69.6497V16.9007C101.039 15.8418 100.343 14.9114 99.3311 14.6039L99.329 14.6051ZM50.6861 94.9895C34.0893 88.2518 19.5159 75.3478 19.5159 69.6518V29.3897L50.6861 20.0389L81.8563 29.3897V69.6518C81.8563 75.3492 67.2833 88.2532 50.6861 94.9895Z" fill="white"/>
<path d="M65.0721 52.868C64.0702 52.868 63.135 52.2354 62.7993 51.2278L59.0976 40.1221C58.7709 39.1387 57.8549 38.482 56.8193 38.482H44.5479C43.5171 38.482 42.6012 39.1387 42.2704 40.1221L38.5687 51.2278C38.1513 52.4842 36.7994 53.165 35.5382 52.7435C34.2819 52.3261 33.6059 50.9694 34.0226 49.713L37.7243 38.6073C38.7077 35.6619 41.45 33.6863 44.5529 33.6863H56.8243C59.9222 33.6863 62.6653 35.6619 63.6479 38.6017L67.3496 49.7075C67.767 50.9638 67.0903 52.3206 65.8339 52.738C65.5755 52.8295 65.3218 52.868 65.0721 52.868V52.868Z" fill="white"/>
<path d="M36.3 72.0484C34.9762 72.0484 33.902 70.9743 33.902 69.6505V64.8554C33.902 63.5317 34.9762 62.4575 36.3 62.4575C37.6238 62.4575 38.6979 63.5317 38.6979 64.8554V69.6505C38.6979 70.9743 37.6238 72.0484 36.3 72.0484Z" fill="white"/>
<path d="M65.0721 72.0484C63.7483 72.0484 62.6742 70.9743 62.6742 69.6505V64.8554C62.6742 63.5317 63.7483 62.4575 65.0721 62.4575C66.3959 62.4575 67.47 63.5317 67.47 64.8554V69.6505C67.47 70.9743 66.3959 72.0484 65.0721 72.0484Z" fill="white"/>
<path d="M70.941 50.7244L66.146 48.3265C65.8104 48.1587 65.446 48.072 65.0718 48.072H36.3C35.9259 48.072 35.5614 48.1587 35.2259 48.3265L30.4308 50.7244C29.62 51.1315 29.1071 51.9615 29.1071 52.8679V60.0609C29.1071 64.0267 32.3342 67.2539 36.3 67.2539H65.0718C69.0376 67.2539 72.2648 64.0267 72.2648 60.0609V52.8679C72.2648 51.9616 71.7518 51.1315 70.941 50.7244ZM41.0943 60.0609H36.2993C34.9755 60.0609 33.9014 58.9868 33.9014 57.663C33.9014 56.3392 34.9755 55.265 36.2993 55.265H41.0943C42.4181 55.265 43.4923 56.3392 43.4923 57.663C43.4923 58.9868 42.4181 60.0609 41.0943 60.0609ZM65.0716 60.0609H60.2765C58.9527 60.0609 57.8786 58.9868 57.8786 57.663C57.8786 56.3392 58.9527 55.265 60.2765 55.265H65.0716C66.3954 55.265 67.4695 56.3392 67.4695 57.663C67.4695 58.9868 66.3954 60.0609 65.0716 60.0609Z" fill="white"/>
</svg>
