<svg width="13" height="13" viewBox="0 0 13 13" fill="none" xmlns="http://www.w3.org/2000/svg">
<g clip-path="url(#clip0_1_51)">
<path d="M9.20833 8.66671H10.2917V2.16671H4.875V3.25004H9.20833V8.66671ZM9.20833 9.75004V11.375C9.20833 11.674 8.96458 11.9167 8.66288 11.9167H2.17046C2.09903 11.9171 2.02822 11.9034 1.96209 11.8764C1.89597 11.8494 1.83583 11.8096 1.78515 11.7592C1.73446 11.7089 1.69422 11.6491 1.66674 11.5831C1.63925 11.5172 1.62507 11.4465 1.625 11.375L1.62663 3.79171C1.62663 3.49271 1.87038 3.25004 2.17208 3.25004H3.79167V1.62504C3.79167 1.48138 3.84874 1.34361 3.95032 1.24202C4.0519 1.14044 4.18967 1.08337 4.33333 1.08337H10.8333C10.977 1.08337 11.1148 1.14044 11.2164 1.24202C11.3179 1.34361 11.375 1.48138 11.375 1.62504V9.20837C11.375 9.35203 11.3179 9.48981 11.2164 9.59139C11.1148 9.69297 10.977 9.75004 10.8333 9.75004H9.20833ZM2.70996 4.33337L2.70833 10.8334H8.125V4.33337H2.70996ZM3.79167 8.66671H6.22917C6.301 8.66671 6.36988 8.63817 6.42068 8.58738C6.47147 8.53659 6.5 8.4677 6.5 8.39587C6.5 8.32404 6.47147 8.25516 6.42068 8.20437C6.36988 8.15357 6.301 8.12504 6.22917 8.12504H4.60417C4.24502 8.12504 3.90058 7.98237 3.64663 7.72841C3.39267 7.47446 3.25 7.13002 3.25 6.77087C3.25 6.41173 3.39267 6.06729 3.64663 5.81333C3.90058 5.55938 4.24502 5.41671 4.60417 5.41671H4.875V4.87504H5.95833V5.41671H7.04167V6.50004H4.60417C4.53234 6.50004 4.46345 6.52857 4.41266 6.57937C4.36187 6.63016 4.33333 6.69904 4.33333 6.77087C4.33333 6.8427 4.36187 6.91159 4.41266 6.96238C4.46345 7.01317 4.53234 7.04171 4.60417 7.04171H6.22917C6.58831 7.04171 6.93275 7.18438 7.18671 7.43833C7.44066 7.69229 7.58333 8.03673 7.58333 8.39587C7.58333 8.75502 7.44066 9.09946 7.18671 9.35341C6.93275 9.60737 6.58831 9.75004 6.22917 9.75004H5.95833V10.2917H4.875V9.75004H3.79167V8.66671Z" fill="#4E4E4E"/>
</g>
<defs>
<clipPath id="clip0_1_51">
<rect width="13" height="13" fill="white"/>
</clipPath>
</defs>
</svg>
