<svg width="12" height="12" viewBox="0 0 12 12" fill="none" xmlns="http://www.w3.org/2000/svg">
<path d="M11.9999 5.96288C11.9859 4.81243 11.6454 3.68997 11.0185 2.7277C10.3916 1.76543 9.50457 1.00342 8.46174 0.531412C7.41883 0.0594069 6.26365 -0.102931 5.13217 0.0635047C4.00071 0.229948 2.94006 0.71823 2.07515 1.47087C1.21024 2.2235 0.577098 3.20914 0.250276 4.31169C-0.0765383 5.41426 -0.0834237 6.5878 0.230445 7.69418C0.544315 8.80055 1.16586 9.79358 2.02188 10.5564C2.87789 11.3193 3.93275 11.8202 5.06219 12V7.72119H3.56215V5.96288H5.06219V4.62717C5.02746 4.3166 5.06092 4.00214 5.16022 3.70599C5.25952 3.40983 5.4222 3.13922 5.63678 2.91324C5.85136 2.68726 6.1126 2.51142 6.4021 2.39814C6.69161 2.28486 7.00235 2.23688 7.31226 2.25762C7.76212 2.26382 8.21093 2.30418 8.65479 2.37836V3.88764H7.90477C7.77547 3.87123 7.64407 3.88427 7.52046 3.9258C7.39678 3.96732 7.28398 4.03628 7.19038 4.12756C7.09677 4.21884 7.02477 4.33012 6.9797 4.45315C6.93454 4.57623 6.91752 4.70791 6.92974 4.83847V5.97797H8.59479L8.32479 7.73628H6.93724V11.9623C8.35471 11.7367 9.6449 11.0074 10.5737 9.9067C11.5026 8.80599 12.0085 7.40681 11.9999 5.96288Z" fill="black"/>
</svg>
