<svg width="17" height="13" viewBox="0 0 17 13" fill="none" xmlns="http://www.w3.org/2000/svg">
<path d="M8.97235 7.05804H7.73759C7.7172 7.05804 7.70088 7.0658 7.68728 7.07743C7.67368 7.09036 7.66688 7.10716 7.66688 7.12526V9.59945C7.66688 9.61884 7.67504 9.63435 7.68728 9.64728C7.70088 9.66021 7.71856 9.66667 7.73759 9.66667H8.97098C8.99138 9.66667 9.0077 9.65891 9.0213 9.64728C9.0349 9.63435 9.0417 9.61755 9.0417 9.59945V7.12526C9.0417 7.10587 9.03354 7.09036 9.0213 7.07743C9.00906 7.06321 8.99138 7.05804 8.97235 7.05804ZM0.949181 1.80588H5.23137V0.638585C5.23137 0.461487 5.30753 0.302487 5.42855 0.187439C5.55094 0.0723902 5.71956 0 5.90314 0H10.8068C10.9931 0 11.159 0.0723902 11.2814 0.187439C11.4024 0.302487 11.4786 0.464073 11.4786 0.638585V1.80588H15.7608C16.0232 1.80588 16.2598 1.908 16.4298 2.07217C16.6025 2.23634 16.7099 2.46127 16.7099 2.70817V4.88763C15.637 5.58697 14.5301 6.1829 13.3892 6.66894C12.2414 7.15758 11.0584 7.53633 9.83449 7.79745V6.92619C9.83449 6.72711 9.74882 6.54355 9.61148 6.4117C9.47413 6.28114 9.28103 6.1997 9.07025 6.1997H7.63832C7.42891 6.1997 7.23581 6.28114 7.0971 6.4117C6.95975 6.54226 6.87408 6.72582 6.87408 6.92619V7.77806C5.68285 7.51823 4.52833 7.14594 3.40916 6.66894C2.23697 6.16997 1.10149 5.55336 0 4.82946V2.70817C0 2.45868 0.107429 2.23375 0.280131 2.07217C0.451473 1.908 0.689448 1.80588 0.949181 1.80588ZM16.7099 6.18031V12.0956C16.7099 12.3451 16.6025 12.57 16.4298 12.7316C16.2571 12.8958 16.0205 12.9979 15.7608 12.9979H0.949181C0.686728 12.9979 0.450113 12.8958 0.280131 12.7316C0.107429 12.5674 0 12.3425 0 12.0956V6.12602C0.936942 6.69738 1.90108 7.19636 2.89242 7.61906C4.17205 8.16458 5.49927 8.58211 6.87544 8.86133V9.79853C6.87544 9.9976 6.96111 10.1812 7.09846 10.313C7.23581 10.4436 7.43027 10.525 7.63968 10.525H9.07161C9.28103 10.525 9.47413 10.4436 9.61284 10.313C9.75018 10.1825 9.83585 9.99889 9.83585 9.79853V8.81609L9.85081 8.87555C11.2528 8.59504 12.6045 8.17362 13.9073 7.61777C14.8673 7.20928 15.8016 6.72841 16.7099 6.18031ZM10.2955 0.869975H6.41717C6.39405 0.869975 6.37502 0.877731 6.35734 0.894536C6.34374 0.907462 6.3315 0.929438 6.3315 0.951414V1.78131H10.3771V0.951414C10.3771 0.929438 10.3689 0.91134 10.3512 0.894536C10.3376 0.881609 10.3145 0.869975 10.2914 0.869975H10.2955Z" fill="white"/>
</svg>
