<svg width="12" height="12" viewBox="0 0 12 12" fill="none" xmlns="http://www.w3.org/2000/svg">
<path d="M6 0C2.68594 0 0 2.68594 0 6C0 9.31406 2.68594 12 6 12C9.31406 12 12 9.31406 12 6C12 2.68594 9.31406 0 6 0ZM4.32187 8.51016H3.15234V4.76719H4.32187V8.51016ZM3.70547 4.29844H3.69609C3.27187 4.29844 2.99766 4.0125 2.99766 3.64922C2.99766 3.27891 3.28125 3 3.7125 3C4.14375 3 4.40859 3.27891 4.41797 3.64922C4.42031 4.01016 4.14609 4.29844 3.70547 4.29844ZM9 8.51016H7.67344V6.57422C7.67344 6.06797 7.46719 5.72109 7.01016 5.72109C6.66094 5.72109 6.46641 5.95547 6.37734 6.18047C6.34453 6.26016 6.34922 6.37266 6.34922 6.4875V8.51016H5.03438C5.03438 8.51016 5.05078 5.07891 5.03438 4.76719H6.34922V5.35547C6.42656 5.09766 6.84609 4.73203 7.51641 4.73203C8.34844 4.73203 9 5.27109 9 6.42891V8.51016Z" fill="black"/>
</svg>
