<svg width="20" height="20" viewBox="0 0 20 20" fill="none" xmlns="http://www.w3.org/2000/svg">
<path d="M10.0004 19.0924C10.3329 19.0847 10.6519 18.9597 10.9011 18.7395C11.1503 18.5193 11.3136 18.218 11.3621 17.889H8.58598C8.63584 18.227 8.80677 18.5353 9.06695 18.7567C9.32713 18.978 9.65886 19.0973 10.0004 19.0924Z" fill="#0F3F54"/>
<path d="M17.8372 15.8461L17.6577 15.6878C17.1486 15.2342 16.703 14.7141 16.333 14.1414C15.9288 13.3511 15.6866 12.488 15.6205 11.6028V8.99555C15.6183 8.67886 15.5901 8.36288 15.536 8.05083C14.642 7.86708 13.839 7.38003 13.2629 6.67216C12.6868 5.96428 12.373 5.07907 12.3747 4.16638C12.3747 4.05555 12.3747 3.94472 12.3747 3.83388C11.8236 3.56271 11.2316 3.38438 10.6224 3.30611V2.64111C10.6224 2.45424 10.5482 2.27503 10.4161 2.14289C10.2839 2.01076 10.1047 1.93652 9.91785 1.93652C9.73098 1.93652 9.55177 2.01076 9.41963 2.14289C9.2875 2.27503 9.21326 2.45424 9.21326 2.64111V3.3325C7.84934 3.5249 6.60107 4.20425 5.69891 5.24513C4.79675 6.286 4.30162 7.61812 4.30493 8.99555V11.6028C4.23883 12.488 3.99659 13.3511 3.59243 14.1414C3.22873 14.7126 2.79031 15.2327 2.28882 15.6878L2.10938 15.8461V17.3344H17.8372V15.8461Z" fill="#006391"/>
<path d="M16.3332 6.80561C17.7906 6.80561 18.9721 5.62414 18.9721 4.16672C18.9721 2.7093 17.7906 1.52783 16.3332 1.52783C14.8758 1.52783 13.6943 2.7093 13.6943 4.16672C13.6943 5.62414 14.8758 6.80561 16.3332 6.80561Z" fill="#0F3F54"/>
<circle cx="16.5" cy="3.5" r="3" fill="#3AC9A4" stroke="white"/>
<path d="M15.6605 4.01989C15.5511 4.01989 15.4538 4.00213 15.3686 3.96662C15.2839 3.93063 15.2173 3.88163 15.169 3.8196C15.1207 3.75758 15.0966 3.68726 15.0966 3.60866C15.0966 3.54806 15.1103 3.49242 15.1378 3.44176C15.1657 3.39062 15.2036 3.34825 15.2514 3.31463C15.2992 3.28054 15.3527 3.25876 15.4119 3.24929V3.23935C15.3343 3.22372 15.2713 3.18608 15.223 3.12642C15.1747 3.06629 15.1506 2.99645 15.1506 2.9169C15.1506 2.84162 15.1726 2.77462 15.2166 2.71591C15.2607 2.65672 15.321 2.61032 15.3977 2.5767C15.4749 2.54261 15.5625 2.52557 15.6605 2.52557C15.7585 2.52557 15.8459 2.54261 15.9226 2.5767C15.9998 2.6108 16.0604 2.65743 16.1044 2.71662C16.1484 2.77533 16.1707 2.84209 16.1712 2.9169C16.1707 2.99692 16.1461 3.06676 16.0973 3.12642C16.0485 3.18608 15.986 3.22372 15.9098 3.23935V3.24929C15.968 3.25876 16.0208 3.28054 16.0682 3.31463C16.116 3.34825 16.1539 3.39062 16.1818 3.44176C16.2102 3.49242 16.2247 3.54806 16.2251 3.60866C16.2247 3.68726 16.2003 3.75758 16.152 3.8196C16.1037 3.88163 16.0369 3.93063 15.9517 3.96662C15.867 4.00213 15.7699 4.01989 15.6605 4.01989ZM15.6605 3.79403C15.7093 3.79403 15.7519 3.78527 15.7884 3.76776C15.8248 3.74976 15.8532 3.72514 15.8736 3.69389C15.8944 3.66217 15.9048 3.62571 15.9048 3.58452C15.9048 3.54238 15.8942 3.50521 15.8729 3.47301C15.8516 3.44034 15.8227 3.41477 15.7862 3.39631C15.7498 3.37737 15.7079 3.3679 15.6605 3.3679C15.6136 3.3679 15.5717 3.37737 15.5348 3.39631C15.4979 3.41477 15.4688 3.44034 15.4474 3.47301C15.4266 3.50521 15.4162 3.54238 15.4162 3.58452C15.4162 3.62571 15.4264 3.66217 15.4467 3.69389C15.4671 3.72514 15.4957 3.74976 15.5327 3.76776C15.5696 3.78527 15.6122 3.79403 15.6605 3.79403ZM15.6605 3.14418C15.7012 3.14418 15.7375 3.13589 15.7692 3.11932C15.8009 3.10275 15.8258 3.07978 15.8438 3.05043C15.8617 3.02107 15.8707 2.98722 15.8707 2.94886C15.8707 2.91098 15.8617 2.87784 15.8438 2.84943C15.8258 2.82055 15.8011 2.79806 15.7699 2.78196C15.7386 2.76539 15.7022 2.7571 15.6605 2.7571C15.6193 2.7571 15.5829 2.76539 15.5511 2.78196C15.5194 2.79806 15.4946 2.82055 15.4766 2.84943C15.459 2.87784 15.4503 2.91098 15.4503 2.94886C15.4503 2.98722 15.4593 3.02107 15.4773 3.05043C15.4953 3.07978 15.5201 3.10275 15.5518 3.11932C15.5836 3.13589 15.6198 3.14418 15.6605 3.14418ZM16.9828 4.01989C16.8734 4.01989 16.7761 4.00213 16.6909 3.96662C16.6061 3.93063 16.5396 3.88163 16.4913 3.8196C16.443 3.75758 16.4189 3.68726 16.4189 3.60866C16.4189 3.54806 16.4326 3.49242 16.46 3.44176C16.488 3.39062 16.5259 3.34825 16.5737 3.31463C16.6215 3.28054 16.675 3.25876 16.7342 3.24929V3.23935C16.6565 3.22372 16.5936 3.18608 16.5453 3.12642C16.497 3.06629 16.4728 2.99645 16.4728 2.9169C16.4728 2.84162 16.4949 2.77462 16.5389 2.71591C16.5829 2.65672 16.6433 2.61032 16.72 2.5767C16.7972 2.54261 16.8848 2.52557 16.9828 2.52557C17.0808 2.52557 17.1681 2.54261 17.2449 2.5767C17.322 2.6108 17.3826 2.65743 17.4267 2.71662C17.4707 2.77533 17.493 2.84209 17.4934 2.9169C17.493 2.99692 17.4683 3.06676 17.4196 3.12642C17.3708 3.18608 17.3083 3.22372 17.2321 3.23935V3.24929C17.2903 3.25876 17.3431 3.28054 17.3904 3.31463C17.4383 3.34825 17.4761 3.39062 17.5041 3.44176C17.5325 3.49242 17.5469 3.54806 17.5474 3.60866C17.5469 3.68726 17.5225 3.75758 17.4743 3.8196C17.426 3.88163 17.3592 3.93063 17.274 3.96662C17.1892 4.00213 17.0922 4.01989 16.9828 4.01989ZM16.9828 3.79403C17.0315 3.79403 17.0742 3.78527 17.1106 3.76776C17.1471 3.74976 17.1755 3.72514 17.1958 3.69389C17.2167 3.66217 17.2271 3.62571 17.2271 3.58452C17.2271 3.54238 17.2164 3.50521 17.1951 3.47301C17.1738 3.44034 17.1449 3.41477 17.1085 3.39631C17.072 3.37737 17.0301 3.3679 16.9828 3.3679C16.9359 3.3679 16.894 3.37737 16.8571 3.39631C16.8201 3.41477 16.791 3.44034 16.7697 3.47301C16.7489 3.50521 16.7385 3.54238 16.7385 3.58452C16.7385 3.62571 16.7486 3.66217 16.769 3.69389C16.7894 3.72514 16.818 3.74976 16.8549 3.76776C16.8919 3.78527 16.9345 3.79403 16.9828 3.79403ZM16.9828 3.14418C17.0235 3.14418 17.0597 3.13589 17.0914 3.11932C17.1232 3.10275 17.148 3.07978 17.166 3.05043C17.184 3.02107 17.193 2.98722 17.193 2.94886C17.193 2.91098 17.184 2.87784 17.166 2.84943C17.148 2.82055 17.1234 2.79806 17.0922 2.78196C17.0609 2.76539 17.0244 2.7571 16.9828 2.7571C16.9416 2.7571 16.9051 2.76539 16.8734 2.78196C16.8417 2.79806 16.8168 2.82055 16.7988 2.84943C16.7813 2.87784 16.7725 2.91098 16.7725 2.94886C16.7725 2.98722 16.7815 3.02107 16.7995 3.05043C16.8175 3.07978 16.8424 3.10275 16.8741 3.11932C16.9058 3.13589 16.9421 3.14418 16.9828 3.14418ZM18.1971 3.77841V2.77273H18.4513V3.77841H18.1971ZM17.8214 3.4027V3.14844H18.8271V3.4027H17.8214Z" fill="white"/>
</svg>
