<svg width="17" height="17" viewBox="0 0 17 17" fill="none" xmlns="http://www.w3.org/2000/svg">
<g clip-path="url(#clip0_8_616)">
<path d="M7.48914 0C9.55514 0 11.4286 0.8327 12.7859 2.17119C14.1429 3.51521 14.978 5.36544 14.978 7.41696C14.978 8.91344 14.5275 10.3121 13.7582 11.4764L17 14.9756L14.7639 17L11.6376 13.5932C10.4508 14.3768 9.02195 14.8341 7.48914 14.8341C5.42314 14.8341 3.54949 14.0015 2.19242 12.663C0.8352 11.3186 0 9.46849 0 7.41696C0 5.37084 0.840648 3.51521 2.19242 2.17119C3.54949 0.827166 5.41769 0 7.48914 0ZM8.71505 4.24761H6.74446C6.73301 4.24761 6.72295 4.2519 6.71443 4.26034C6.7073 4.26754 6.70158 4.27888 6.70158 4.29022V4.72905H8.75654V4.29022C8.75654 4.27888 8.75221 4.26892 8.74369 4.26034C8.73628 4.25329 8.72483 4.24761 8.71338 4.24761H8.71505ZM3.96703 4.74261H6.14226V4.1249C6.14226 4.0311 6.18095 3.9474 6.2427 3.88626C6.30444 3.82511 6.39035 3.78679 6.48366 3.78679H8.97431C9.06902 3.78679 9.15353 3.82511 9.21556 3.88626C9.27688 3.94727 9.31571 4.03249 9.31571 4.1249V4.74261H11.4908C11.6242 4.74261 11.7445 4.79657 11.8308 4.88317C11.9184 4.96978 11.9727 5.08903 11.9727 5.21977V6.45436C11.4374 6.81447 10.8858 7.1227 10.3167 7.37505C9.6919 7.65229 9.04556 7.86327 8.37659 8.00272V7.55725C8.37659 7.46635 8.33915 7.38252 8.27908 7.32289C8.21888 7.26326 8.13422 7.22633 8.04245 7.22633H7.4158C7.32417 7.22633 7.23952 7.26326 7.17931 7.32289C7.11911 7.38252 7.08181 7.46635 7.08181 7.55725V7.99303C6.42904 7.85358 5.79779 7.64593 5.18721 7.37505C4.60205 7.11537 4.03519 6.79676 3.48566 6.42365V5.21977C3.48566 5.08778 3.54014 4.96839 3.62758 4.88317C3.71475 4.79657 3.83516 4.74261 3.96703 4.74261ZM11.9726 6.97799V10.1872C11.9726 10.3193 11.9183 10.4387 11.8307 10.5239C11.7431 10.6107 11.6228 10.6645 11.4907 10.6645H3.96703C3.83376 10.6645 3.71335 10.6107 3.62716 10.5239C3.53972 10.4372 3.48524 10.3181 3.48524 10.1872V6.94908C3.97094 7.26022 4.4706 7.5311 4.98536 7.75951C5.64259 8.051 6.32386 8.27291 7.03068 8.41997C7.04772 8.42343 7.06477 8.42523 7.08139 8.42523V8.86668C7.08139 8.95744 7.11883 9.04128 7.17889 9.1009C7.2391 9.16067 7.32375 9.19733 7.41539 9.19733H8.04203C8.13381 9.19733 8.21846 9.16053 8.27866 9.1009C8.33887 9.04114 8.37617 8.95744 8.37617 8.86668V8.42107C8.40704 8.42688 8.43972 8.42688 8.47241 8.42011C9.17938 8.27304 9.86064 8.05114 10.5176 7.75965C11.0166 7.53829 11.5014 7.2771 11.9726 6.97799ZM12.1925 2.75888C10.989 1.56731 9.32423 0.827166 7.48914 0.827166C5.65391 0.827166 3.9891 1.56731 2.78582 2.75888C1.58254 3.95045 0.8352 5.59952 0.8352 7.41696C0.8352 9.23441 1.58254 10.8833 2.78582 12.0752C3.9891 13.2668 5.65391 14.0069 7.48914 14.0069C9.32423 14.0069 10.989 13.2668 12.1925 12.0752C13.3956 10.8833 14.1429 9.23454 14.1429 7.41696C14.1429 5.59938 13.3956 3.95059 12.1925 2.75888Z" fill="white"/>
</g>
<defs>
<clipPath id="clip0_8_616">
<rect width="17" height="17" fill="white"/>
</clipPath>
</defs>
</svg>
