<svg width="360" height="574" viewBox="0 0 360 574" fill="none" xmlns="http://www.w3.org/2000/svg">
<path d="M0 0H360V534C360 556.091 342.091 574 320 574H40C17.9086 574 0 556.091 0 534V0Z" fill="url(#paint0_linear_0_1)"/>
<mask id="mask0_0_1" style="mask-type:alpha" maskUnits="userSpaceOnUse" x="0" y="0" width="360" height="574">
<path d="M0 0H360V534C360 556.091 342.091 574 320 574H40C17.9086 574 0 556.091 0 534V0Z" fill="url(#paint1_linear_0_1)"/>
</mask>
<g mask="url(#mask0_0_1)">
<path d="M172.735 341.632C58.0826 434.201 1.00666 518.112 -4 556.997V574H372L366.993 20C361.987 76.2029 332.948 212.277 172.735 341.632Z" fill="url(#paint2_linear_0_1)"/>
<path d="M261 413C160 522.5 171.007 665.115 166 704L525 655L369.5 32.5C364.493 88.7029 427.988 231.958 261 413Z" fill="url(#paint3_linear_0_1)"/>
</g>
<line x1="158.298" y1="257.595" x2="174.595" y2="275.702" stroke="white" stroke-width="16" stroke-linecap="round"/>
<line x1="158.298" y1="257.595" x2="174.595" y2="275.702" stroke="white" stroke-width="16" stroke-linecap="round"/>
<line x1="158.298" y1="257.595" x2="174.595" y2="275.702" stroke="white" stroke-width="16" stroke-linecap="round"/>
<line x1="211.685" y1="241.309" x2="175.309" y2="275.71" stroke="white" stroke-width="16" stroke-linecap="round"/>
<line x1="211.685" y1="241.309" x2="175.309" y2="275.71" stroke="white" stroke-width="16" stroke-linecap="round"/>
<line x1="211.685" y1="241.309" x2="175.309" y2="275.71" stroke="white" stroke-width="16" stroke-linecap="round"/>
<circle cx="143" cy="227" r="4" fill="white" fill-opacity="0.5"/>
<circle cx="165.5" cy="313.5" r="1.5" fill="white" fill-opacity="0.5"/>
<circle cx="111.5" cy="211.5" r="1.5" fill="white" fill-opacity="0.5"/>
<circle cx="246.5" cy="221.5" r="1.5" fill="white" fill-opacity="0.5"/>
<circle cx="232" cy="278" r="3" fill="white" fill-opacity="0.5"/>
<path d="M133.882 294.21C133.099 294.691 132.235 295.024 131.34 295.189C130.445 295.355 129.537 295.35 128.668 295.176C127.798 295.001 126.984 294.66 126.271 294.172C125.559 293.684 124.963 293.058 124.517 292.33C124.07 291.602 123.783 290.787 123.67 289.931C123.558 289.075 123.622 288.195 123.861 287.34C124.099 286.486 124.507 285.674 125.06 284.952C125.613 284.229 126.301 283.61 127.085 283.129" stroke="white" stroke-opacity="0.5" stroke-width="2"/>
<path d="M205.249 199.892C204.929 199.356 204.71 198.767 204.605 198.159C204.499 197.55 204.509 196.934 204.635 196.345C204.76 195.756 204.998 195.206 205.335 194.726C205.672 194.247 206.101 193.847 206.599 193.55C207.096 193.252 207.651 193.063 208.233 192.994C208.815 192.924 209.412 192.975 209.99 193.143C210.568 193.312 211.116 193.595 211.602 193.976C212.088 194.357 212.503 194.829 212.823 195.364" stroke="white" stroke-opacity="0.5" stroke-width="2"/>
<path d="M203 290L204.347 294.146H208.706L205.18 296.708L206.527 300.854L203 298.292L199.473 300.854L200.82 296.708L197.294 294.146H201.653L203 290Z" fill="#B2B544" fill-opacity="0.5"/>
<path d="M157.054 197.48L160.796 199.717L164.08 196.851L163.108 201.1L166.849 203.338L162.507 203.727L161.535 207.976L159.824 203.967L155.482 204.356L158.766 201.489L157.054 197.48Z" fill="#B2B544" fill-opacity="0.5"/>
<path d="M138.31 356.33C138.31 358.13 137.66 359.57 136.36 360.65C135.08 361.71 133.39 362.24 131.29 362.24C129.01 362.24 127.12 361.81 125.62 360.95V357.08C127.34 358.32 129.22 358.94 131.26 358.94C132.18 358.94 132.92 358.72 133.48 358.28C134.04 357.82 134.32 357.21 134.32 356.45C134.32 356.09 134.25 355.77 134.11 355.49C133.97 355.21 133.68 354.93 133.24 354.65C132.82 354.37 132.49 354.17 132.25 354.05C132.03 353.93 131.56 353.71 130.84 353.39C130.64 353.29 130.49 353.22 130.39 353.18C129.65 352.84 129.05 352.54 128.59 352.28C128.13 352 127.63 351.63 127.09 351.17C126.55 350.71 126.14 350.16 125.86 349.52C125.6 348.88 125.47 348.15 125.47 347.33C125.47 345.61 126.1 344.23 127.36 343.19C128.64 342.15 130.33 341.63 132.43 341.63C134.33 341.63 135.97 341.96 137.35 342.62V346.28C135.85 345.38 134.25 344.93 132.55 344.93C131.61 344.93 130.87 345.14 130.33 345.56C129.81 345.98 129.55 346.52 129.55 347.18C129.55 347.84 129.83 348.39 130.39 348.83C130.97 349.25 131.83 349.72 132.97 350.24C133.77 350.6 134.42 350.92 134.92 351.2C135.42 351.46 135.96 351.83 136.54 352.31C137.14 352.79 137.58 353.37 137.86 354.05C138.16 354.71 138.31 355.47 138.31 356.33ZM154.527 362H150.897V359.51C150.097 361.27 148.537 362.15 146.217 362.15C144.677 362.15 143.477 361.71 142.617 360.83C141.757 359.95 141.327 358.7 141.327 357.08V346.79H144.927V356.24C144.927 357.2 145.157 357.93 145.617 358.43C146.097 358.93 146.747 359.18 147.567 359.18C148.607 359.18 149.417 358.83 149.997 358.13C150.597 357.43 150.897 356.37 150.897 354.95V346.79H154.527V362ZM169.45 361.34C168.39 361.96 167.07 362.27 165.49 362.27C163.15 362.27 161.25 361.53 159.79 360.05C158.35 358.57 157.63 356.7 157.63 354.44C157.65 352.22 158.37 350.35 159.79 348.83C161.23 347.31 163.19 346.55 165.67 346.55C167.15 346.55 168.41 346.83 169.45 347.39V350.57C168.45 349.93 167.31 349.61 166.03 349.61C164.63 349.61 163.5 350.05 162.64 350.93C161.78 351.81 161.34 352.98 161.32 354.44C161.36 355.88 161.79 357.04 162.61 357.92C163.45 358.8 164.58 359.24 166 359.24C167.24 359.24 168.39 358.9 169.45 358.22V361.34ZM183.542 361.34C182.482 361.96 181.162 362.27 179.582 362.27C177.242 362.27 175.342 361.53 173.882 360.05C172.442 358.57 171.722 356.7 171.722 354.44C171.742 352.22 172.462 350.35 173.882 348.83C175.322 347.31 177.282 346.55 179.762 346.55C181.242 346.55 182.502 346.83 183.542 347.39V350.57C182.542 349.93 181.402 349.61 180.122 349.61C178.722 349.61 177.592 350.05 176.732 350.93C175.872 351.81 175.432 352.98 175.412 354.44C175.452 355.88 175.882 357.04 176.702 357.92C177.542 358.8 178.672 359.24 180.092 359.24C181.332 359.24 182.482 358.9 183.542 358.22V361.34ZM198.234 361.16C197.174 361.82 195.644 362.15 193.644 362.15C191.224 362.15 189.314 361.43 187.914 359.99C186.514 358.55 185.814 356.69 185.814 354.41C185.814 351.99 186.474 350.09 187.794 348.71C189.114 347.33 190.764 346.64 192.744 346.64C194.724 346.64 196.294 347.24 197.454 348.44C198.614 349.64 199.194 351.39 199.194 353.69C199.194 354.25 199.124 354.97 198.984 355.85H189.444C189.704 356.95 190.244 357.79 191.064 358.37C191.904 358.95 192.944 359.24 194.184 359.24C195.784 359.24 197.134 358.84 198.234 358.04V361.16ZM192.834 349.46C191.974 349.46 191.224 349.78 190.584 350.42C189.964 351.04 189.564 351.95 189.384 353.15H195.774V352.7C195.734 351.72 195.464 350.94 194.964 350.36C194.484 349.76 193.774 349.46 192.834 349.46ZM212.433 357.62C212.433 359.04 211.923 360.15 210.903 360.95C209.883 361.75 208.523 362.15 206.823 362.15C204.943 362.15 203.423 361.84 202.263 361.22V357.92C203.603 358.82 205.053 359.27 206.613 359.27C207.273 359.27 207.783 359.15 208.143 358.91C208.523 358.65 208.713 358.3 208.713 357.86C208.713 357.6 208.653 357.37 208.533 357.17C208.413 356.95 208.183 356.74 207.843 356.54C207.503 356.34 207.233 356.2 207.033 356.12C206.853 356.02 206.483 355.85 205.923 355.61C205.863 355.59 205.813 355.57 205.773 355.55C205.753 355.53 205.713 355.51 205.653 355.49C205.593 355.47 205.543 355.45 205.503 355.43C203.283 354.43 202.173 352.99 202.173 351.11C202.173 349.71 202.703 348.61 203.763 347.81C204.823 347.01 206.153 346.61 207.753 346.61C209.293 346.61 210.573 346.83 211.593 347.27V350.45C210.593 349.85 209.343 349.55 207.843 349.55C207.223 349.55 206.733 349.69 206.373 349.97C206.033 350.23 205.863 350.57 205.863 350.99C205.863 351.15 205.883 351.3 205.923 351.44C205.983 351.58 206.073 351.72 206.193 351.86C206.333 351.98 206.463 352.09 206.583 352.19C206.703 352.29 206.873 352.4 207.093 352.52C207.313 352.62 207.503 352.71 207.663 352.79C207.823 352.87 208.043 352.97 208.323 353.09C208.603 353.21 208.823 353.31 208.983 353.39C210.043 353.91 210.883 354.49 211.503 355.13C212.123 355.77 212.433 356.6 212.433 357.62ZM225.235 357.62C225.235 359.04 224.725 360.15 223.705 360.95C222.685 361.75 221.325 362.15 219.625 362.15C217.745 362.15 216.225 361.84 215.065 361.22V357.92C216.405 358.82 217.855 359.27 219.415 359.27C220.075 359.27 220.585 359.15 220.945 358.91C221.325 358.65 221.515 358.3 221.515 357.86C221.515 357.6 221.455 357.37 221.335 357.17C221.215 356.95 220.985 356.74 220.645 356.54C220.305 356.34 220.035 356.2 219.835 356.12C219.655 356.02 219.285 355.85 218.725 355.61C218.665 355.59 218.615 355.57 218.575 355.55C218.555 355.53 218.515 355.51 218.455 355.49C218.395 355.47 218.345 355.45 218.305 355.43C216.085 354.43 214.975 352.99 214.975 351.11C214.975 349.71 215.505 348.61 216.565 347.81C217.625 347.01 218.955 346.61 220.555 346.61C222.095 346.61 223.375 346.83 224.395 347.27V350.45C223.395 349.85 222.145 349.55 220.645 349.55C220.025 349.55 219.535 349.69 219.175 349.97C218.835 350.23 218.665 350.57 218.665 350.99C218.665 351.15 218.685 351.3 218.725 351.44C218.785 351.58 218.875 351.72 218.995 351.86C219.135 351.98 219.265 352.09 219.385 352.19C219.505 352.29 219.675 352.4 219.895 352.52C220.115 352.62 220.305 352.71 220.465 352.79C220.625 352.87 220.845 352.97 221.125 353.09C221.405 353.21 221.625 353.31 221.785 353.39C222.845 353.91 223.685 354.49 224.305 355.13C224.925 355.77 225.235 356.6 225.235 357.62ZM232.008 355.28H228.558V341.78H232.008V355.28ZM232.608 359.87C232.608 360.55 232.378 361.12 231.918 361.58C231.458 362.02 230.898 362.24 230.238 362.24C229.558 362.24 228.988 362.02 228.528 361.58C228.088 361.12 227.868 360.55 227.868 359.87C227.868 359.21 228.088 358.65 228.528 358.19C228.988 357.73 229.558 357.5 230.238 357.5C230.898 357.5 231.458 357.73 231.918 358.19C232.378 358.65 232.608 359.21 232.608 359.87Z" fill="white"/>
<path d="M121.611 382H120.225V379.294L117.695 374.586H119.312L119.807 375.664C120.093 376.287 120.327 376.812 120.511 377.237C120.694 377.655 120.804 377.915 120.841 378.018L120.907 378.183C120.973 377.912 121.35 377.072 122.04 375.664L122.546 374.586H124.163L121.611 379.25V382ZM130.158 379.195C130.158 380.038 129.92 380.731 129.443 381.274C128.974 381.817 128.314 382.088 127.463 382.088C126.62 382.088 125.96 381.824 125.483 381.296C125.014 380.768 124.779 380.093 124.779 379.272C124.779 378.421 125.025 377.721 125.516 377.171C126.007 376.614 126.656 376.335 127.463 376.335C128.321 376.335 128.985 376.606 129.454 377.149C129.923 377.684 130.158 378.366 130.158 379.195ZM126.165 379.228C126.165 379.741 126.279 380.17 126.506 380.515C126.733 380.86 127.056 381.032 127.474 381.032C127.907 381.032 128.233 380.863 128.453 380.526C128.673 380.189 128.783 379.76 128.783 379.239C128.783 378.704 128.677 378.267 128.464 377.93C128.251 377.585 127.918 377.413 127.463 377.413C127.045 377.413 126.722 377.585 126.495 377.93C126.275 378.275 126.165 378.707 126.165 379.228ZM136.081 382H134.75V381.087C134.456 381.732 133.884 382.055 133.034 382.055C132.469 382.055 132.029 381.894 131.714 381.571C131.398 381.248 131.241 380.79 131.241 380.196V376.423H132.561V379.888C132.561 380.24 132.645 380.508 132.814 380.691C132.99 380.874 133.228 380.966 133.529 380.966C133.91 380.966 134.207 380.838 134.42 380.581C134.64 380.324 134.75 379.936 134.75 379.415V376.423H136.081V382ZM138.164 377.083H137.042L138.076 374.366H139.583L138.164 377.083ZM142.964 382H141.534L139.521 376.423H140.907L141.644 378.788C141.791 379.25 141.916 379.664 142.018 380.031C142.121 380.39 142.187 380.636 142.216 380.768L142.249 380.966C142.323 380.555 142.532 379.829 142.876 378.788L143.646 376.423H145.01L142.964 382ZM150.119 381.692C149.73 381.934 149.169 382.055 148.436 382.055C147.549 382.055 146.848 381.791 146.335 381.263C145.822 380.735 145.565 380.053 145.565 379.217C145.565 378.33 145.807 377.633 146.291 377.127C146.775 376.621 147.38 376.368 148.106 376.368C148.832 376.368 149.408 376.588 149.833 377.028C150.258 377.468 150.471 378.11 150.471 378.953C150.471 379.158 150.445 379.422 150.394 379.745H146.896C146.991 380.148 147.189 380.456 147.49 380.669C147.798 380.882 148.179 380.988 148.634 380.988C149.221 380.988 149.716 380.841 150.119 380.548V381.692ZM148.139 377.402C147.824 377.402 147.549 377.519 147.314 377.754C147.087 377.981 146.94 378.315 146.874 378.755H149.217V378.59C149.202 378.231 149.103 377.945 148.92 377.732C148.744 377.512 148.484 377.402 148.139 377.402ZM156.327 381.065C156.62 381.065 156.847 380.981 157.009 380.812C157.177 380.636 157.262 380.409 157.262 380.13V379.602H156.58C156.235 379.602 155.971 379.675 155.788 379.822C155.604 379.961 155.513 380.141 155.513 380.361C155.513 380.83 155.784 381.065 156.327 381.065ZM157.317 381.329C157.06 381.806 156.576 382.044 155.865 382.044C155.337 382.044 154.915 381.89 154.6 381.582C154.292 381.274 154.138 380.885 154.138 380.416C154.138 379.888 154.336 379.474 154.732 379.173C155.128 378.872 155.7 378.722 156.448 378.722H157.262V378.381C157.262 378.073 157.181 377.838 157.02 377.677C156.858 377.516 156.583 377.435 156.195 377.435C155.601 377.435 155.054 377.6 154.556 377.93V376.709C154.974 376.452 155.575 376.324 156.36 376.324C157.87 376.324 158.626 377.028 158.626 378.436V382H157.317V381.329ZM161.308 384.101H159.988V376.423H161.308V377.281C161.704 376.658 162.272 376.346 163.013 376.346C163.739 376.346 164.315 376.606 164.74 377.127C165.173 377.648 165.389 378.333 165.389 379.184C165.389 380.02 165.173 380.713 164.74 381.263C164.315 381.806 163.735 382.077 163.002 382.077C162.254 382.077 161.689 381.773 161.308 381.164V384.101ZM161.726 377.897C161.447 378.183 161.308 378.608 161.308 379.173C161.308 379.738 161.444 380.174 161.715 380.482C161.986 380.79 162.313 380.944 162.694 380.944C163.09 380.944 163.413 380.794 163.662 380.493C163.911 380.185 164.036 379.756 164.036 379.206C164.036 378.656 163.911 378.231 163.662 377.93C163.413 377.622 163.097 377.468 162.716 377.468C162.335 377.468 162.005 377.611 161.726 377.897ZM167.839 384.101H166.519V376.423H167.839V377.281C168.235 376.658 168.804 376.346 169.544 376.346C170.27 376.346 170.846 376.606 171.271 377.127C171.704 377.648 171.92 378.333 171.92 379.184C171.92 380.02 171.704 380.713 171.271 381.263C170.846 381.806 170.267 382.077 169.533 382.077C168.785 382.077 168.221 381.773 167.839 381.164V384.101ZM168.257 377.897C167.979 378.183 167.839 378.608 167.839 379.173C167.839 379.738 167.975 380.174 168.246 380.482C168.518 380.79 168.844 380.944 169.225 380.944C169.621 380.944 169.944 380.794 170.193 380.493C170.443 380.185 170.567 379.756 170.567 379.206C170.567 378.656 170.443 378.231 170.193 377.93C169.944 377.622 169.629 377.468 169.247 377.468C168.866 377.468 168.536 377.611 168.257 377.897ZM174.425 382H173.105V374.223H174.425V382ZM177.283 382H175.963V376.423H177.283V382ZM177.415 374.751C177.415 374.978 177.338 375.169 177.184 375.323C177.03 375.477 176.843 375.554 176.623 375.554C176.403 375.554 176.216 375.477 176.062 375.323C175.908 375.169 175.831 374.978 175.831 374.751C175.831 374.531 175.908 374.344 176.062 374.19C176.216 374.036 176.403 373.959 176.623 373.959C176.843 373.959 177.03 374.036 177.184 374.19C177.338 374.344 177.415 374.531 177.415 374.751ZM183.022 381.692C182.634 381.934 182.073 382.055 181.339 382.055C180.452 382.055 179.752 381.791 179.238 381.263C178.725 380.735 178.468 380.053 178.468 379.217C178.468 378.33 178.71 377.633 179.194 377.127C179.678 376.621 180.283 376.368 181.009 376.368C181.735 376.368 182.311 376.588 182.736 377.028C183.162 377.468 183.374 378.11 183.374 378.953C183.374 379.158 183.349 379.422 183.297 379.745H179.799C179.895 380.148 180.093 380.456 180.393 380.669C180.701 380.882 181.083 380.988 181.537 380.988C182.124 380.988 182.619 380.841 183.022 380.548V381.692ZM181.042 377.402C180.727 377.402 180.452 377.519 180.217 377.754C179.99 377.981 179.843 378.315 179.777 378.755H182.12V378.59C182.106 378.231 182.007 377.945 181.823 377.732C181.647 377.512 181.387 377.402 181.042 377.402ZM185.644 379.239C185.644 379.745 185.772 380.156 186.029 380.471C186.285 380.786 186.604 380.944 186.986 380.944C187.382 380.944 187.712 380.794 187.976 380.493C188.24 380.185 188.372 379.741 188.372 379.162C188.372 378.597 188.232 378.176 187.954 377.897C187.675 377.611 187.356 377.468 186.997 377.468C186.615 377.468 186.293 377.626 186.029 377.941C185.772 378.249 185.644 378.682 185.644 379.239ZM189.692 382H188.372V381.131C187.99 381.762 187.426 382.077 186.678 382.077C185.944 382.077 185.361 381.798 184.929 381.241C184.503 380.684 184.291 380.009 184.291 379.217C184.291 378.337 184.514 377.64 184.962 377.127C185.416 376.606 185.996 376.346 186.7 376.346C187.426 376.346 187.983 376.658 188.372 377.281V374.223H189.692V382ZM196.927 381.868C196.671 381.993 196.341 382.055 195.937 382.055C194.735 382.055 194.133 381.446 194.133 380.229V377.413H193.297V376.423H194.133V375.081H195.453V376.423H196.839V377.413H195.453V380.251C195.453 380.486 195.516 380.665 195.64 380.79C195.765 380.907 195.937 380.966 196.157 380.966C196.436 380.966 196.693 380.889 196.927 380.735V381.868ZM203.097 379.195C203.097 380.038 202.859 380.731 202.382 381.274C201.913 381.817 201.253 382.088 200.402 382.088C199.559 382.088 198.899 381.824 198.422 381.296C197.953 380.768 197.718 380.093 197.718 379.272C197.718 378.421 197.964 377.721 198.455 377.171C198.947 376.614 199.596 376.335 200.402 376.335C201.26 376.335 201.924 376.606 202.393 377.149C202.863 377.684 203.097 378.366 203.097 379.195ZM199.104 379.228C199.104 379.741 199.218 380.17 199.445 380.515C199.673 380.86 199.995 381.032 200.413 381.032C200.846 381.032 201.172 380.863 201.392 380.526C201.612 380.189 201.722 379.76 201.722 379.239C201.722 378.704 201.616 378.267 201.403 377.93C201.191 377.585 200.857 377.413 200.402 377.413C199.984 377.413 199.662 377.585 199.434 377.93C199.214 378.275 199.104 378.707 199.104 379.228ZM210.044 381.868C209.787 381.993 209.457 382.055 209.054 382.055C207.851 382.055 207.25 381.446 207.25 380.229V377.413H206.414V376.423H207.25V375.081H208.57V376.423H209.956V377.413H208.57V380.251C208.57 380.486 208.632 380.665 208.757 380.79C208.881 380.907 209.054 380.966 209.274 380.966C209.552 380.966 209.809 380.889 210.044 380.735V381.868ZM215.972 382H214.652V378.579C214.652 378.227 214.56 377.952 214.377 377.754C214.201 377.556 213.97 377.457 213.684 377.457C213.368 377.457 213.082 377.578 212.826 377.82C212.576 378.062 212.452 378.458 212.452 379.008V382H211.132V374.223H212.452V377.369C212.752 376.694 213.321 376.357 214.157 376.357C214.699 376.357 215.136 376.529 215.466 376.874C215.803 377.211 215.972 377.703 215.972 378.348V382ZM218.726 382H217.406V376.423H218.726V382ZM218.858 374.751C218.858 374.978 218.781 375.169 218.627 375.323C218.473 375.477 218.286 375.554 218.066 375.554C217.846 375.554 217.659 375.477 217.505 375.323C217.351 375.169 217.274 374.978 217.274 374.751C217.274 374.531 217.351 374.344 217.505 374.19C217.659 374.036 217.846 373.959 218.066 373.959C218.286 373.959 218.473 374.036 218.627 374.19C218.781 374.344 218.858 374.531 218.858 374.751ZM223.85 380.394C223.85 380.915 223.663 381.322 223.289 381.615C222.915 381.908 222.416 382.055 221.793 382.055C221.103 382.055 220.546 381.941 220.121 381.714V380.504C220.612 380.834 221.144 380.999 221.716 380.999C221.958 380.999 222.145 380.955 222.277 380.867C222.416 380.772 222.486 380.643 222.486 380.482C222.486 380.387 222.464 380.302 222.42 380.229C222.376 380.148 222.291 380.071 222.167 379.998C222.042 379.925 221.943 379.873 221.87 379.844C221.804 379.807 221.668 379.745 221.463 379.657C221.441 379.65 221.422 379.642 221.408 379.635C221.4 379.628 221.386 379.62 221.364 379.613C221.342 379.606 221.323 379.598 221.309 379.591C220.495 379.224 220.088 378.696 220.088 378.007C220.088 377.494 220.282 377.09 220.671 376.797C221.059 376.504 221.547 376.357 222.134 376.357C222.698 376.357 223.168 376.438 223.542 376.599V377.765C223.175 377.545 222.717 377.435 222.167 377.435C221.939 377.435 221.76 377.486 221.628 377.589C221.503 377.684 221.441 377.809 221.441 377.963C221.441 378.022 221.448 378.077 221.463 378.128C221.485 378.179 221.518 378.231 221.562 378.282C221.613 378.326 221.661 378.366 221.705 378.403C221.749 378.44 221.811 378.48 221.892 378.524C221.972 378.561 222.042 378.594 222.101 378.623C222.159 378.652 222.24 378.689 222.343 378.733C222.445 378.777 222.526 378.814 222.585 378.843C222.973 379.034 223.281 379.246 223.509 379.481C223.736 379.716 223.85 380.02 223.85 380.394ZM229.029 382.374C229.029 382.924 228.878 383.36 228.578 383.683C228.277 384.006 227.848 384.167 227.291 384.167C227.027 384.167 226.748 384.108 226.455 383.991V382.946C226.711 383.056 226.935 383.111 227.126 383.111C227.514 383.111 227.709 382.858 227.709 382.352V376.423H229.029V382.374ZM229.161 374.751C229.161 374.978 229.084 375.169 228.93 375.323C228.776 375.477 228.585 375.554 228.358 375.554C228.138 375.554 227.951 375.477 227.797 375.323C227.643 375.169 227.566 374.978 227.566 374.751C227.566 374.531 227.643 374.344 227.797 374.19C227.951 374.036 228.138 373.959 228.358 373.959C228.585 373.959 228.776 374.036 228.93 374.19C229.084 374.344 229.161 374.531 229.161 374.751ZM235.539 379.195C235.539 380.038 235.3 380.731 234.824 381.274C234.354 381.817 233.694 382.088 232.844 382.088C232 382.088 231.34 381.824 230.864 381.296C230.394 380.768 230.16 380.093 230.16 379.272C230.16 378.421 230.405 377.721 230.897 377.171C231.388 376.614 232.037 376.335 232.844 376.335C233.702 376.335 234.365 376.606 234.835 377.149C235.304 377.684 235.539 378.366 235.539 379.195ZM231.546 379.228C231.546 379.741 231.659 380.17 231.887 380.515C232.114 380.86 232.437 381.032 232.855 381.032C233.287 381.032 233.614 380.863 233.834 380.526C234.054 380.189 234.164 379.76 234.164 379.239C234.164 378.704 234.057 378.267 233.845 377.93C233.632 377.585 233.298 377.413 232.844 377.413C232.426 377.413 232.103 377.585 231.876 377.93C231.656 378.275 231.546 378.707 231.546 379.228ZM238.018 382H236.687V374.223H238.018V377.27C238.407 376.654 238.964 376.346 239.69 376.346C240.387 376.346 240.959 376.606 241.406 377.127C241.861 377.64 242.088 378.337 242.088 379.217C242.088 380.009 241.872 380.684 241.439 381.241C241.014 381.798 240.435 382.077 239.701 382.077C238.968 382.077 238.407 381.765 238.018 381.142V382ZM238.018 379.162C238.018 379.741 238.15 380.185 238.414 380.493C238.678 380.794 239.008 380.944 239.404 380.944C239.786 380.944 240.105 380.786 240.361 380.471C240.618 380.156 240.746 379.745 240.746 379.239C240.746 378.682 240.614 378.249 240.35 377.941C240.094 377.626 239.775 377.468 239.393 377.468C239.034 377.468 238.715 377.611 238.436 377.897C238.158 378.176 238.018 378.597 238.018 379.162Z" fill="white"/>
<rect x="94" y="432" width="173" height="32" rx="8" fill="#FF8A00"/>
<path d="M120.432 444.356H119.288V447.554H120.497C121.052 447.554 121.472 447.411 121.758 447.125C122.044 446.83 122.187 446.44 122.187 445.955C122.187 444.889 121.602 444.356 120.432 444.356ZM119.288 452H117.949V443.238H120.393C121.398 443.238 122.174 443.485 122.72 443.979C123.266 444.464 123.539 445.127 123.539 445.968C123.53 446.583 123.374 447.108 123.071 447.541C122.768 447.966 122.347 448.273 121.81 448.464L124.098 452H122.499L120.445 448.672H119.288V452ZM130.2 451.649C129.714 451.926 129.073 452.065 128.276 452.065C127.253 452.065 126.438 451.757 125.832 451.142C125.225 450.527 124.922 449.721 124.922 448.724C124.922 447.667 125.199 446.839 125.754 446.241C126.308 445.634 127.015 445.331 127.873 445.331C128.713 445.331 129.381 445.595 129.875 446.124C130.369 446.644 130.616 447.398 130.616 448.386C130.616 448.655 130.59 448.936 130.538 449.231H126.209C126.295 449.803 126.538 450.241 126.937 450.544C127.335 450.847 127.838 450.999 128.445 450.999C129.147 450.999 129.732 450.834 130.2 450.505V451.649ZM127.899 446.384C127.465 446.384 127.093 446.544 126.781 446.865C126.469 447.177 126.274 447.632 126.196 448.23H129.381V447.996C129.363 447.502 129.229 447.112 128.978 446.826C128.726 446.531 128.367 446.384 127.899 446.384ZM135.574 451.831C135.288 451.987 134.937 452.065 134.521 452.065C133.16 452.065 132.48 451.376 132.48 449.998V446.397H131.453V445.409H132.48V443.797H133.767V445.409H135.496V446.397H133.767V450.024C133.767 450.657 134.07 450.973 134.677 450.973C135.032 450.973 135.331 450.878 135.574 450.687V451.831ZM142.347 452H141.073V450.869C140.726 451.675 140.042 452.078 139.019 452.078C138.369 452.078 137.853 451.887 137.472 451.506C137.091 451.116 136.9 450.583 136.9 449.907V445.409H138.187V449.595C138.187 450.046 138.295 450.392 138.512 450.635C138.737 450.869 139.045 450.986 139.435 450.986C139.929 450.986 140.323 450.813 140.618 450.466C140.921 450.119 141.073 449.63 141.073 448.997V445.409H142.347V452ZM145.412 452H144.138V445.409H145.412V446.566C145.733 445.751 146.309 445.344 147.141 445.344C147.263 445.344 147.397 445.357 147.544 445.383V446.631C147.362 446.553 147.159 446.514 146.933 446.514C146.491 446.514 146.127 446.709 145.841 447.099C145.555 447.489 145.412 447.953 145.412 448.49V452ZM153.99 452H152.716V447.84C152.716 447.381 152.599 447.03 152.365 446.787C152.14 446.544 151.837 446.423 151.455 446.423C151.005 446.423 150.619 446.601 150.298 446.956C149.978 447.303 149.817 447.792 149.817 448.425V452H148.543V445.409H149.817V446.54C150.207 445.725 150.892 445.318 151.871 445.318C152.521 445.318 153.037 445.517 153.418 445.916C153.8 446.315 153.99 446.856 153.99 447.541V452ZM162.361 451.831C162.075 451.987 161.724 452.065 161.308 452.065C159.947 452.065 159.267 451.376 159.267 449.998V446.397H158.24V445.409H159.267V443.797H160.554V445.409H162.283V446.397H160.554V450.024C160.554 450.657 160.857 450.973 161.464 450.973C161.819 450.973 162.118 450.878 162.361 450.687V451.831ZM168.848 446.28C169.394 446.913 169.667 447.723 169.667 448.711C169.667 449.699 169.385 450.514 168.822 451.155C168.267 451.796 167.5 452.117 166.521 452.117C165.55 452.117 164.788 451.801 164.233 451.168C163.678 450.535 163.401 449.734 163.401 448.763C163.401 447.775 163.687 446.956 164.259 446.306C164.831 445.647 165.585 445.318 166.521 445.318C167.526 445.318 168.302 445.639 168.848 446.28ZM164.727 448.724C164.727 449.374 164.887 449.924 165.208 450.375C165.529 450.817 165.966 451.038 166.521 451.038C167.11 451.038 167.557 450.821 167.86 450.388C168.172 449.955 168.328 449.404 168.328 448.737C168.328 448.052 168.181 447.493 167.886 447.06C167.591 446.618 167.132 446.397 166.508 446.397C165.945 446.397 165.507 446.622 165.195 447.073C164.883 447.515 164.727 448.065 164.727 448.724ZM175.654 452.585C175.654 453.2 175.49 453.681 175.16 454.028C174.84 454.375 174.38 454.548 173.782 454.548C173.505 454.548 173.189 454.483 172.833 454.353V453.274C173.111 453.413 173.388 453.482 173.665 453.482C174.142 453.482 174.38 453.174 174.38 452.559V445.409H175.654V452.585ZM175.81 443.394C175.81 443.611 175.732 443.797 175.576 443.953C175.42 444.109 175.23 444.187 175.004 444.187C174.788 444.187 174.601 444.113 174.445 443.966C174.289 443.81 174.211 443.619 174.211 443.394C174.211 443.169 174.285 442.978 174.432 442.822C174.588 442.666 174.779 442.588 175.004 442.588C175.23 442.588 175.42 442.666 175.576 442.822C175.732 442.978 175.81 443.169 175.81 443.394ZM182.534 446.28C183.08 446.913 183.353 447.723 183.353 448.711C183.353 449.699 183.071 450.514 182.508 451.155C181.953 451.796 181.186 452.117 180.207 452.117C179.236 452.117 178.473 451.801 177.919 451.168C177.364 450.535 177.087 449.734 177.087 448.763C177.087 447.775 177.373 446.956 177.945 446.306C178.517 445.647 179.271 445.318 180.207 445.318C181.212 445.318 181.988 445.639 182.534 446.28ZM178.413 448.724C178.413 449.374 178.573 449.924 178.894 450.375C179.214 450.817 179.652 451.038 180.207 451.038C180.796 451.038 181.242 450.821 181.546 450.388C181.858 449.955 182.014 449.404 182.014 448.737C182.014 448.052 181.866 447.493 181.572 447.06C181.277 446.618 180.818 446.397 180.194 446.397C179.63 446.397 179.193 446.622 178.881 447.073C178.569 447.515 178.413 448.065 178.413 448.724ZM186.102 452H184.815V442.809H186.102V446.41C186.57 445.682 187.233 445.318 188.091 445.318C188.923 445.318 189.603 445.63 190.132 446.254C190.66 446.878 190.925 447.706 190.925 448.737C190.925 449.664 190.673 450.457 190.171 451.116C189.668 451.766 188.979 452.091 188.104 452.091C187.228 452.091 186.561 451.727 186.102 450.999V452ZM186.102 448.659C186.102 449.439 186.275 450.02 186.622 450.401C186.968 450.782 187.393 450.973 187.896 450.973C188.381 450.973 188.788 450.769 189.118 450.362C189.447 449.946 189.612 449.413 189.612 448.763C189.612 448.018 189.447 447.446 189.118 447.047C188.788 446.64 188.368 446.436 187.857 446.436C187.406 446.436 186.999 446.618 186.635 446.982C186.279 447.346 186.102 447.905 186.102 448.659ZM199.675 450.18C199.675 450.769 199.467 451.233 199.051 451.571C198.635 451.9 198.072 452.065 197.361 452.065C196.581 452.065 195.931 451.935 195.411 451.675V450.466C196.018 450.839 196.646 451.025 197.296 451.025C197.634 451.025 197.894 450.956 198.076 450.817C198.267 450.678 198.362 450.496 198.362 450.271C198.362 450.08 198.289 449.911 198.141 449.764C197.994 449.608 197.842 449.495 197.686 449.426C197.539 449.348 197.283 449.231 196.919 449.075C195.888 448.65 195.372 448.026 195.372 447.203C195.372 446.622 195.589 446.167 196.022 445.838C196.456 445.509 196.997 445.344 197.647 445.344C198.358 445.344 198.913 445.439 199.311 445.63V446.787C198.887 446.536 198.341 446.41 197.673 446.41C197.37 446.41 197.127 446.479 196.945 446.618C196.772 446.757 196.685 446.939 196.685 447.164C196.685 447.225 196.69 447.285 196.698 447.346C196.716 447.398 196.742 447.454 196.776 447.515C196.811 447.567 196.841 447.615 196.867 447.658C196.902 447.693 196.954 447.732 197.023 447.775C197.093 447.818 197.145 447.857 197.179 447.892C197.223 447.918 197.288 447.953 197.374 447.996C197.47 448.039 197.539 448.074 197.582 448.1C197.626 448.117 197.699 448.152 197.803 448.204C197.916 448.247 197.994 448.278 198.037 448.295C198.549 448.52 198.947 448.776 199.233 449.062C199.528 449.339 199.675 449.712 199.675 450.18ZM205.915 451.649C205.429 451.926 204.788 452.065 203.991 452.065C202.968 452.065 202.153 451.757 201.547 451.142C200.94 450.527 200.637 449.721 200.637 448.724C200.637 447.667 200.914 446.839 201.469 446.241C202.023 445.634 202.73 445.331 203.588 445.331C204.428 445.331 205.096 445.595 205.59 446.124C206.084 446.644 206.331 447.398 206.331 448.386C206.331 448.655 206.305 448.936 206.253 449.231H201.924C202.01 449.803 202.253 450.241 202.652 450.544C203.05 450.847 203.553 450.999 204.16 450.999C204.862 450.999 205.447 450.834 205.915 450.505V451.649ZM203.614 446.384C203.18 446.384 202.808 446.544 202.496 446.865C202.184 447.177 201.989 447.632 201.911 448.23H205.096V447.996C205.078 447.502 204.944 447.112 204.693 446.826C204.441 446.531 204.082 446.384 203.614 446.384ZM209.963 451.051C210.379 451.051 210.704 450.938 210.938 450.713C211.18 450.479 211.302 450.176 211.302 449.803V449.062H210.314C209.828 449.062 209.46 449.157 209.209 449.348C208.966 449.539 208.845 449.781 208.845 450.076C208.845 450.379 208.94 450.618 209.131 450.791C209.321 450.964 209.599 451.051 209.963 451.051ZM211.341 451.22C211.003 451.775 210.409 452.052 209.56 452.052C208.936 452.052 208.433 451.874 208.052 451.519C207.679 451.155 207.493 450.696 207.493 450.141C207.493 449.508 207.731 449.019 208.208 448.672C208.684 448.317 209.352 448.139 210.21 448.139H211.302V447.762C211.302 447.311 211.193 446.973 210.977 446.748C210.76 446.514 210.4 446.397 209.898 446.397C209.196 446.397 208.559 446.592 207.987 446.982V445.747C208.498 445.452 209.174 445.305 210.015 445.305C211.739 445.305 212.602 446.141 212.602 447.814V452H211.341V451.22ZM215.592 452H214.318V445.409H215.592V446.566C215.913 445.751 216.489 445.344 217.321 445.344C217.442 445.344 217.577 445.357 217.724 445.383V446.631C217.542 446.553 217.338 446.514 217.113 446.514C216.671 446.514 216.307 446.709 216.021 447.099C215.735 447.489 215.592 447.953 215.592 448.49V452ZM223.377 451.74C222.953 452 222.411 452.13 221.752 452.13C220.721 452.13 219.898 451.805 219.282 451.155C218.667 450.505 218.359 449.695 218.359 448.724C218.359 447.779 218.667 446.973 219.282 446.306C219.906 445.63 220.747 445.292 221.804 445.292C222.376 445.292 222.901 445.413 223.377 445.656V446.826C222.953 446.557 222.472 446.423 221.934 446.423C221.25 446.423 220.699 446.64 220.283 447.073C219.876 447.506 219.672 448.061 219.672 448.737C219.69 449.404 219.893 449.955 220.283 450.388C220.673 450.813 221.219 451.025 221.921 451.025C222.441 451.025 222.927 450.882 223.377 450.596V451.74ZM230.289 452H229.015V447.84C229.015 447.389 228.898 447.043 228.664 446.8C228.439 446.549 228.14 446.423 227.767 446.423C227.334 446.423 226.948 446.588 226.61 446.917C226.281 447.246 226.116 447.749 226.116 448.425V452H224.842V442.809H226.116V446.54C226.489 445.725 227.169 445.318 228.157 445.318C228.799 445.318 229.314 445.517 229.704 445.916C230.094 446.315 230.289 446.869 230.289 447.58V452Z" fill="white"/>
<defs>
<linearGradient id="paint0_linear_0_1" x1="180" y1="0" x2="180" y2="574" gradientUnits="userSpaceOnUse">
<stop stop-color="#02436A"/>
<stop offset="1" stop-color="#025283"/>
</linearGradient>
<linearGradient id="paint1_linear_0_1" x1="180" y1="0" x2="180" y2="574" gradientUnits="userSpaceOnUse">
<stop stop-color="#0F3E53"/>
<stop offset="1" stop-color="#1D6359"/>
</linearGradient>
<linearGradient id="paint2_linear_0_1" x1="349.47" y1="99.8176" x2="53.9213" y2="640.448" gradientUnits="userSpaceOnUse">
<stop stop-color="#02436A"/>
<stop offset="1" stop-color="#025283"/>
</linearGradient>
<linearGradient id="paint3_linear_0_1" x1="346" y1="302" x2="200.399" y2="713.854" gradientUnits="userSpaceOnUse">
<stop stop-color="#024A76"/>
<stop offset="0.77961" stop-color="#02446D"/>
</linearGradient>
</defs>
</svg>
