<svg width="13" height="13" viewBox="0 0 13 13" fill="none" xmlns="http://www.w3.org/2000/svg">
<path d="M4.87501 7.04169V8.66669H8.12501V7.04169H11.9167V10.8334C11.9167 10.977 11.8596 11.1148 11.758 11.2164C11.6564 11.318 11.5187 11.375 11.375 11.375H1.62501C1.48135 11.375 1.34358 11.318 1.24199 11.2164C1.14041 11.1148 1.08334 10.977 1.08334 10.8334V7.04169H4.87501ZM5.95834 5.95835H7.04168V7.58335H5.95834V5.95835ZM3.79168 2.70835V1.08335C3.79168 0.939695 3.84875 0.80192 3.95033 0.700337C4.05191 0.598755 4.18968 0.541687 4.33334 0.541687H8.66668C8.81034 0.541687 8.94811 0.598755 9.04969 0.700337C9.15127 0.80192 9.20834 0.939695 9.20834 1.08335V2.70835H11.375C11.5187 2.70835 11.6564 2.76542 11.758 2.867C11.8596 2.96859 11.9167 3.10636 11.9167 3.25002V5.95835H8.12501V4.87502H4.87501V5.95835H1.08334V3.25002C1.08334 3.10636 1.14041 2.96859 1.24199 2.867C1.34358 2.76542 1.48135 2.70835 1.62501 2.70835H3.79168ZM4.87501 1.62502V2.70835H8.12501V1.62502H4.87501Z" fill="#4E4E4E"/>
</svg>
